# xmcd
#
# Track frame offsets:
#	150
#	11612
#	112050
#
# Disc length: 3654 seconds
#
# Revision: 0
# Processed by: cddbd v1.5.2PL0 Copyright (c) Steve Scherf et al.
# Submitted via: EasyCDDAExtractor 16.0.6.1
#
DISCID=1e0e4403
DTITLE=Χορός Αγιορειτών πατέρων - Άγιον Όρος 1000 χρόνια 05
DYEAR=2012
DGENRE=Βυζ. Εκκλησιαστική
TTITLE0=Αγρ. κ Παν. Τιμ. Ζ.-Τάλαντο, καμπάνες
TTITLE1=Αγρ. κ Παν. Τιμ. Ζ.-Εις πολλά έτη Δέσποτα [β']-Ανοιξαντάρια[πλ. δ']
TTITLE2=Αγρ. κ Παν. Τιμ. Ζ.-Κεκραγάριο [μέλ. ΙακώβουΠρωτ/λτου]-Στ. προσόμ. [α'
TTITLE2=,δ']
EXTD=
EXTT0=
EXTT1=
EXTT2=
PLAYORDER=
